<svg width="250" height="150" viewBox="0 0 250 150" fill="none" xmlns="http://www.w3.org/2000/svg">
<rect x="2.5" y="2.5" width="245" height="145" rx="5.5" stroke="#C28EC2" stroke-width="5"/>
<path d="M117.748 89.4819C117.748 84.903 118.302 81.2563 119.408 78.5417C120.515 75.8271 122.534 73.1615 125.464 70.545C128.427 67.8958 130.396 65.7536 131.373 64.1183C132.35 62.4503 132.838 60.7005 132.838 58.869C132.838 53.3416 130.299 50.578 125.22 50.578C122.811 50.578 120.873 51.3302 119.408 52.8347C117.976 54.3065 117.227 56.3506 117.162 58.9671H103C103.065 52.7202 105.067 47.8306 109.007 44.2984C112.979 40.7661 118.383 39 125.22 39C132.122 39 137.477 40.6844 141.286 44.0531C145.095 47.3891 147 52.1151 147 58.2312C147 61.0112 146.381 63.644 145.144 66.1297C143.907 68.5827 141.742 71.3136 138.649 74.3226L134.694 78.1001C132.219 80.4877 130.803 83.284 130.445 86.4892L130.25 89.4819H117.748ZM116.332 104.543C116.332 102.352 117.064 100.553 118.529 99.1465C120.027 97.7074 121.932 96.9879 124.243 96.9879C126.555 96.9879 128.443 97.7074 129.908 99.1465C131.405 100.553 132.154 102.352 132.154 104.543C132.154 106.702 131.422 108.484 129.957 109.89C128.524 111.297 126.62 112 124.243 112C121.866 112 119.946 111.297 118.481 109.89C117.048 108.484 116.332 106.702 116.332 104.543Z" fill="#C28EC2"/>
</svg>
